<svg width="64" height="60" viewBox="0 0 64 60" fill="none" xmlns="http://www.w3.org/2000/svg">
<path d="M3 19.7447V47.4043H30.5M3 19.7447L9.6383 12H29.5532M3 19.7447H29.5532M55 19.7447L49.4681 12H29.5532M55 19.7447H29.5532M55 19.7447V33.5M29.5532 12V19.7447M17.383 24.1702V28.5958H40.617V24.1702H17.383Z" stroke="white" stroke-width="3"/>
<path d="M46.5 34V42.5H38V45.5H46.5V54H49.5V45.5H58V42.5H49.5V34H46.5ZM62.5 44C62.5 52.0081 56.0081 58.5 48 58.5C39.9919 58.5 33.5 52.0081 33.5 44C33.5 35.9919 39.9919 29.5 48 29.5C56.0081 29.5 62.5 35.9919 62.5 44Z" stroke="white" stroke-width="3"/>
</svg>
