<svg width="32" height="32" xmlns="http://www.w3.org/2000/svg" version="1">
<g>
<title>Layer 1</title>
<circle id="svg_1" opacity="0.2" fill="#00100f" r="14" cy="17" cx="16"/>
<circle stroke-width="5" id="svg_2" fill="#FF6969" r="14" cy="16" cx="16"/>
<g id="svg_3" opacity="0.2">
<path id="svg_4" d="m16,7c-2.2096,0 -4,1.7912 -4,4c0,2.2088 1.7904,4 4,4c2.2096,0 4,-1.7912 4,-4c0,-2.2088 -1.7904,-4 -4,-4z"/>
<path id="svg_5" d="m16,17c-6.9993,0.0042 -7,4.43077 -7,4.43077l0,1.8c0,0 1.2923,2.76923 7,2.76923c5.7077,0 7,-2.76923 7,-2.76923l0,-1.8c0,0 0,-4.43354 -6.9986,-4.43077l-0.0014,0z"/>
</g>
<g id="svg_6">
<path id="svg_7" fill="#ffffff" d="m16,6c-2.2096,0 -4,1.7912 -4,4c0,2.2088 1.7904,4 4,4c2.2096,0 4,-1.7912 4,-4c0,-2.2088 -1.7904,-4 -4,-4z"/>
<path id="svg_8" fill="#ffffff" d="m16,16c-6.9993,0.0042 -7,4.43077 -7,4.43077l0,1.8c0,0 1.2923,2.76923 7,2.76923c5.7077,0 7,-2.76923 7,-2.76923l0,-1.8c0,0 0,-4.43354 -6.9986,-4.43077l-0.0014,0z"/>
</g>
<path id="svg_9" fill="#ffffff" opacity="0.2" d="m16,2a14,14 0 0 0 -14,14a14,14 0 0 0 0.02148,0.58594a14,14 0 0 1 13.97852,-13.58594a14,14 0 0 1 13.97852,13.41406a14,14 0 0 0 0.02148,-0.41406a14,14 0 0 0 -14,-14z"/>
</g>
</svg>