<svg width="64" height="64" viewBox="0 0 64 64" fill="none" xmlns="http://www.w3.org/2000/svg">
<path d="M29.3301 40.3333C33.7484 40.3333 37.3301 36.7516 37.3301 32.3333C37.3301 27.9151 33.7484 24.3333 29.3301 24.3333C24.9118 24.3333 21.3301 27.9151 21.3301 32.3333C21.3301 36.7516 24.9118 40.3333 29.3301 40.3333Z" stroke="white" stroke-width="3" stroke-linecap="round" stroke-linejoin="round"/>
<path d="M46.4909 39.0909C46.1763 39.8038 46.0824 40.5946 46.2214 41.3614C46.3605 42.1281 46.726 42.8357 47.2709 43.3927L47.4127 43.5345C47.8523 43.9736 48.2009 44.4949 48.4388 45.0688C48.6767 45.6427 48.7992 46.2579 48.7992 46.8791C48.7992 47.5003 48.6767 48.1155 48.4388 48.6894C48.2009 49.2632 47.8523 49.7846 47.4127 50.2236C46.9737 50.6632 46.4523 51.0118 45.8784 51.2497C45.3046 51.4876 44.6894 51.6101 44.0682 51.6101C43.4469 51.6101 42.8318 51.4876 42.2579 51.2497C41.684 51.0118 41.1627 50.6632 40.7236 50.2236L40.5818 50.0818C40.0248 49.5369 39.3172 49.1714 38.5505 49.0324C37.7837 48.8933 36.9929 48.9872 36.28 49.3018C35.5809 49.6014 34.9847 50.0989 34.5647 50.7331C34.1448 51.3672 33.9194 52.1103 33.9164 52.8709V53.2727C33.9164 54.5265 33.4183 55.7289 32.5318 56.6154C31.6452 57.5019 30.4428 58 29.1891 58C27.9353 58 26.7329 57.5019 25.8464 56.6154C24.9599 55.7289 24.4618 54.5265 24.4618 53.2727V53.06C24.4435 52.2776 24.1903 51.5189 23.735 50.8824C23.2798 50.2459 22.6436 49.761 21.9091 49.4909C21.1962 49.1763 20.4054 49.0824 19.6386 49.2214C18.8719 49.3605 18.1643 49.726 17.6073 50.2709L17.4655 50.4127C17.0264 50.8523 16.5051 51.2009 15.9312 51.4388C15.3573 51.6767 14.7421 51.7992 14.1209 51.7992C13.4997 51.7992 12.8845 51.6767 12.3106 51.4388C11.7368 51.2009 11.2154 50.8523 10.7764 50.4127C10.3368 49.9737 9.98816 49.4523 9.75026 48.8784C9.51237 48.3046 9.38992 47.6894 9.38992 47.0682C9.38992 46.4469 9.51237 45.8318 9.75026 45.2579C9.98816 44.684 10.3368 44.1627 10.7764 43.7236L10.9182 43.5818C11.4631 43.0248 11.8286 42.3172 11.9676 41.5505C12.1067 40.7837 12.0128 39.9929 11.6982 39.28C11.3986 38.5809 10.9011 37.9847 10.2669 37.5647C9.63278 37.1448 8.88968 36.9194 8.12909 36.9164H7.72727C6.47352 36.9164 5.27112 36.4183 4.38459 35.5318C3.49805 34.6452 3 33.4428 3 32.1891C3 30.9353 3.49805 29.7329 4.38459 28.8464C5.27112 27.9599 6.47352 27.4618 7.72727 27.4618H7.94C8.72235 27.4435 9.4811 27.1903 10.1176 26.735C10.7541 26.2798 11.239 25.6436 11.5091 24.9091C11.8237 24.1962 11.9176 23.4054 11.7786 22.6386C11.6395 21.8719 11.274 21.1643 10.7291 20.6073L10.5873 20.4655C10.1477 20.0264 9.79907 19.5051 9.56117 18.9312C9.32328 18.3573 9.20083 17.7421 9.20083 17.1209C9.20083 16.4997 9.32328 15.8845 9.56117 15.3106C9.79907 14.7368 10.1477 14.2154 10.5873 13.7764C11.0263 13.3368 11.5477 12.9882 12.1216 12.7503C12.6954 12.5124 13.3106 12.3899 13.9318 12.3899C14.5531 12.3899 15.1682 12.5124 15.7421 12.7503C16.316 12.9882 16.8373 13.3368 17.2764 13.7764L17.4182 13.9182C17.9752 14.4631 18.6828 14.8286 19.4495 14.9676C20.2163 15.1067 21.0071 15.0128 21.72 14.6982H21.9091C22.6082 14.3986 23.2044 13.9011 23.6244 13.2669C24.0443 12.6328 24.2697 11.8897 24.2727 11.1291V10.7273C24.2727 9.47352 24.7708 8.27112 25.6573 7.38459C26.5438 6.49805 27.7462 6 29 6C30.2537 6 31.4561 6.49805 32.3427 7.38459C33.2292 8.27112 33.7273 9.47352 33.7273 10.7273V10.94C33.7303 11.7006 33.9557 12.4437 34.3756 13.0778C34.7956 13.712 35.3918 14.2095 36.0909 14.5091C36.8038 14.8237 37.5946 14.9176 38.3614 14.7786C39.1281 14.6395 39.8357 14.274 40.3927 13.7291L40.5345 13.5873C40.9736 13.1477 41.4949 12.7991 42.0688 12.5612C42.6427 12.3233 43.2579 12.2008 43.8791 12.2008C44.5003 12.2008 45.1155 12.3233 45.6894 12.5612C46.2632 12.7991 46.7846 13.1477 47.2236 13.5873C47.6632 14.0263 48.0118 14.5477 48.2497 15.1216C48.4876 15.6954 48.6101 16.3106 48.6101 16.9318C48.6101 17.5531 48.4876 18.1682 48.2497 18.7421C48.0118 19.316 47.6632 19.8373 47.2236 20.2764L47.0818 20.4182C46.5369 20.9752 46.1714 21.6828 46.0324 22.4495C45.8933 23.2163 45.9872 24.0071 46.3018 24.72V24.9091C46.6014 25.6082 47.0989 26.2044 47.7331 26.6244C48.3672 27.0443 49.1103 27.2697 49.8709 27.2727H50.2727C51.5265 27.2727 52.7289 27.7708 53.6154 28.6573C54.5019 29.5438 55 30.7462 55 32C55 33.2537 54.5019 34.4561 53.6154 35.3427C52.7289 36.2292 51.5265 36.7273 50.2727 36.7273H50.06C49.2994 36.7303 48.5563 36.9557 47.9222 37.3756C47.288 37.7956 46.7905 38.3918 46.4909 39.0909V39.0909Z" stroke="white" stroke-width="3" stroke-linecap="round" stroke-linejoin="round"/>
</svg>
