<svg width="64" height="60" viewBox="0 0 64 60" fill="none" xmlns="http://www.w3.org/2000/svg">
<path d="M3 19.7447V47.4043H30.5M3 19.7447L9.6383 12H29.5532M3 19.7447H29.5532M55 19.7447L49.4681 12H29.5532M55 19.7447H29.5532M55 19.7447V33.5M29.5532 12V19.7447M17.383 24.1702V28.5958H40.617V24.1702H17.383Z" stroke="white" stroke-width="3"/>
<path d="M62.5 44C62.5 52.0081 56.0081 58.5 48 58.5C39.9919 58.5 33.5 52.0081 33.5 44C33.5 35.9919 39.9919 29.5 48 29.5C56.0081 29.5 62.5 35.9919 62.5 44Z" stroke="white" stroke-width="3"/>
<path d="M40 52V48.9832V48.229L40.7542 47.4748L41.5084 46.7206L42.2626 45.9664L43.0168 45.2122L43.771 44.458L44.5253 43.7038L45.2795 42.9495L46.0337 42.1953L46.7879 41.4411L47.5421 40.6869L48.2963 39.9327L50.1818 41.8182L52.0673 43.7038L51.3131 44.458L50.5589 45.2122L49.8047 45.9664L49.0505 46.7206L48.2963 47.4748L47.5421 48.229L46.7879 48.9832L46.0337 49.7374L45.2795 50.4916L44.5253 51.2458L43.771 52H43.0168H40Z" stroke="white" stroke-width="2"/>
<path d="M54.0606 41.8182L50.1818 37.9394L52.0673 36L56 39.9327L54.0606 41.8182Z" stroke="white" stroke-width="2"/>
</svg>
